HIERARCHY
ROOT reference
{
  OFFSET 0 0 0
  CHANNELS 6 Xposition Yposition Zposition Zrotation Xrotation Yrotation
  JOINT Hips
  {
    OFFSET 349.773 89.4622 219.413
    CHANNELS 3 Zrotation Xrotation Yrotation
    JOINT RightUpLeg
    {
      OFFSET -9.25229 -1.56476 -0.00486621
      CHANNELS 3 Zrotation Xrotation Yrotation
      JOINT RightLeg
      {
        OFFSET 0.0546168 -41.8841 0.068862
        CHANNELS 3 Zrotation Xrotation Yrotation
        JOINT RightFoot
        {
          OFFSET -1.63893 -40.8901 3.53979
          CHANNELS 3 Zrotation Xrotation Yrotation
          End Site
          {
            OFFSET 0 -7.69 17.5
          }
        }
      }
    }
    JOINT LeftUpLeg
    {
      OFFSET 9.30241 -1.63853 -0.0284428
      CHANNELS 3 Zrotation Xrotation Yrotation
      JOINT LeftLeg
      {
        OFFSET 0.0539686 -41.842 -0.0517406
        CHANNELS 3 Zrotation Xrotation Yrotation
        JOINT LeftFoot
        {
          OFFSET 1.12518 -42.5382 -2.5849
          CHANNELS 3 Zrotation Xrotation Yrotation
          End Site
          {
            OFFSET 0 -7.69 17.5
          }
        }
      }
    }
    JOINT Spine
    {
      OFFSET 0.0144198 14.3187 0.0981135
      CHANNELS 3 Zrotation Xrotation Yrotation
      JOINT Spine1
      {
        OFFSET 0.0112165 9.7169 0.0514987
        CHANNELS 3 Zrotation Xrotation Yrotation
        JOINT Spine2
        {
          OFFSET 0.0255827 10.1205 -0.00638435
          CHANNELS 3 Zrotation Xrotation Yrotation
          JOINT Spine3
          {
            OFFSET -0.00190646 9.72552 0.024249
            CHANNELS 3 Zrotation Xrotation Yrotation
            JOINT Neck
            {
              OFFSET -0.136438 10.3681 0.0553958
              CHANNELS 3 Zrotation Xrotation Yrotation
              JOINT Head
              {
                OFFSET 0.0264476 9.5071 0.170402
                CHANNELS 3 Zrotation Xrotation Yrotation
                End Site
                {
                  OFFSET 0 15.95 0
                }
              }
            }
            JOINT RightShoulder
            {
              OFFSET -3.1747 6.92483 0.00547946
              CHANNELS 3 Zrotation Xrotation Yrotation
              JOINT RightArm
              {
                OFFSET -12.7755 -0.0136287 0.0362428
                CHANNELS 3 Zrotation Xrotation Yrotation
                JOINT RightForeArm
                {
                  OFFSET -26.5642 -0.108975 -0.0233747
                  CHANNELS 3 Zrotation Xrotation Yrotation
                  JOINT RightHand
                  {
                    OFFSET -25.905 -0.185223 0.00356295
                    CHANNELS 3 Zrotation Xrotation Yrotation
                    JOINT RightHandThumb1
                    {
                      OFFSET -2.48905 0.190105 3.12053
                      CHANNELS 3 Zrotation Xrotation Yrotation
                      JOINT RightHandThumb2
                      {
                        OFFSET -3.68274 0 0
                        CHANNELS 3 Zrotation Xrotation Yrotation
                        JOINT RightHandThumb3
                        {
                          OFFSET -2.55832 0 0
                          CHANNELS 3 Zrotation Xrotation Yrotation
                          End Site
                          {
                            OFFSET -2.194 0 0
                          }
                        }
                      }
                    }
                    JOINT RightInHandIndex
                    {
                      OFFSET -3.22368 0.508421 1.97842
                      CHANNELS 3 Zrotation Xrotation Yrotation
                      JOINT RightHandIndex1
                      {
                        OFFSET -5.21684 -0.091368 0.999158
                        CHANNELS 3 Zrotation Xrotation Yrotation
                        JOINT RightHandIndex2
                        {
                          OFFSET -3.61937 0 0
                          CHANNELS 3 Zrotation Xrotation Yrotation
                          JOINT RightHandIndex3
                          {
                            OFFSET -2.0521 0 0
                            CHANNELS 3 Zrotation Xrotation Yrotation
                            End Site
                            {
                              OFFSET -1.805 0 0
                            }
                          }
                        }
                      }
                    }
                    JOINT RightInHandMiddle
                    {
                      OFFSET -3.38211 0.517263 0.756737
                      CHANNELS 3 Zrotation Xrotation Yrotation
                      JOINT RightHandMiddle1
                      {
                        OFFSET -5.17411 -0.084 0.313895
                        CHANNELS 3 Zrotation Xrotation Yrotation
                        JOINT RightHandMiddle2
                        {
                          OFFSET -3.94947 0 0
                          CHANNELS 3 Zrotation Xrotation Yrotation
                          JOINT RightHandMiddle3
                          {
                            OFFSET -2.47579 0 0
                            CHANNELS 3 Zrotation Xrotation Yrotation
                            End Site
                            {
                              OFFSET -1.975 0 0
                            }
                          }
                        }
                      }
                    }
                    JOINT RightInHandRing
                    {
                      OFFSET -3.36516 0.537895 -0.128947
                      CHANNELS 3 Zrotation Xrotation Yrotation
                      JOINT RightHandRing1
                      {
                        OFFSET -4.63474 -0.022105 -0.478947
                        CHANNELS 3 Zrotation Xrotation Yrotation
                        JOINT RightHandRing2
                        {
                          OFFSET -3.44238 0 0
                          CHANNELS 3 Zrotation Xrotation Yrotation
                          JOINT RightHandRing3
                          {
                            OFFSET -2.3881 0 0
                            CHANNELS 3 Zrotation Xrotation Yrotation
                            End Site
                            {
                              OFFSET -1.857 0 0
                            }
                          }
                        }
                      }
                    }
                    JOINT RightInHandPinky
                    {
                      OFFSET -3.16105 0.469368 -1.20179
                      CHANNELS 3 Zrotation Xrotation Yrotation
                      JOINT RightHandPinky1
                      {
                        OFFSET -4.14105 -0.022105 -1.09053
                        CHANNELS 3 Zrotation Xrotation Yrotation
                        JOINT RightHandPinky2
                        {
                          OFFSET -2.75653 0 0
                          CHANNELS 3 Zrotation Xrotation Yrotation
                          JOINT RightHandPinky3
                          {
                            OFFSET -1.74189 0 0
                            CHANNELS 3 Zrotation Xrotation Yrotation
                            End Site
                            {
                              OFFSET -1.645 0 0
                            }
                          }
                        }
                      }
                    }
                  }
                }
              }
            }
            JOINT LeftShoulder
            {
              OFFSET 3.23079 6.93624 -0.032633
              CHANNELS 3 Zrotation Xrotation Yrotation
              JOINT LeftArm
              {
                OFFSET 12.8235 -0.00564763 -0.0637926
                CHANNELS 3 Zrotation Xrotation Yrotation
                JOINT LeftForeArm
                {
                  OFFSET 26.4641 -0.00020372 -0.0407631
                  CHANNELS 3 Zrotation Xrotation Yrotation
                  JOINT LeftHand
                  {
                    OFFSET 25.9912 -0.0207868 -0.0178714
                    CHANNELS 3 Zrotation Xrotation Yrotation
                    JOINT LeftHandThumb1
                    {
                      OFFSET 2.48905 0.190105 3.12053
                      CHANNELS 3 Zrotation Xrotation Yrotation
                      JOINT LeftHandThumb2
                      {
                        OFFSET 3.68274 0 0
                        CHANNELS 3 Zrotation Xrotation Yrotation
                        JOINT LeftHandThumb3
                        {
                          OFFSET 2.55832 0 0
                          CHANNELS 3 Zrotation Xrotation Yrotation
                          End Site
                          {
                            OFFSET 2.194 0 0
                          }
                        }
                      }
                    }
                    JOINT LeftInHandIndex
                    {
                      OFFSET 3.22368 0.508421 1.97842
                      CHANNELS 3 Zrotation Xrotation Yrotation
                      JOINT LeftHandIndex1
                      {
                        OFFSET 5.21684 -0.091368 0.999158
                        CHANNELS 3 Zrotation Xrotation Yrotation
                        JOINT LeftHandIndex2
                        {
                          OFFSET 3.61937 0 0
                          CHANNELS 3 Zrotation Xrotation Yrotation
                          JOINT LeftHandIndex3
                          {
                            OFFSET 2.0521 0 0
                            CHANNELS 3 Zrotation Xrotation Yrotation
                            End Site
                            {
                              OFFSET 1.805 0 0
                            }
                          }
                        }
                      }
                    }
                    JOINT LeftInHandMiddle
                    {
                      OFFSET 3.38211 0.517263 0.756737
                      CHANNELS 3 Zrotation Xrotation Yrotation
                      JOINT LeftHandMiddle1
                      {
                        OFFSET 5.17411 -0.084 0.313895
                        CHANNELS 3 Zrotation Xrotation Yrotation
                        JOINT LeftHandMiddle2
                        {
                          OFFSET 3.94947 0 0
                          CHANNELS 3 Zrotation Xrotation Yrotation
                          JOINT LeftHandMiddle3
                          {
                            OFFSET 2.47579 0 0
                            CHANNELS 3 Zrotation Xrotation Yrotation
                            End Site
                            {
                              OFFSET 1.975 0 0
                            }
                          }
                        }
                      }
                    }
                    JOINT LeftInHandRing
                    {
                      OFFSET 3.36516 0.537895 -0.128947
                      CHANNELS 3 Zrotation Xrotation Yrotation
                      JOINT LeftHandRing1
                      {
                        OFFSET 4.63474 -0.022105 -0.478947
                        CHANNELS 3 Zrotation Xrotation Yrotation
                        JOINT LeftHandRing2
                        {
                          OFFSET 3.44238 0 0
                          CHANNELS 3 Zrotation Xrotation Yrotation
                          JOINT LeftHandRing3
                          {
                            OFFSET 2.3881 0 0
                            CHANNELS 3 Zrotation Xrotation Yrotation
                            End Site
                            {
                              OFFSET 1.857 0 0
                            }
                          }
                        }
                      }
                    }
                    JOINT LeftInHandPinky
                    {
                      OFFSET 3.16105 0.469368 -1.20179
                      CHANNELS 3 Zrotation Xrotation Yrotation
                      JOINT LeftHandPinky1
                      {
                        OFFSET 4.14105 -0.022105 -1.09053
                        CHANNELS 3 Zrotation Xrotation Yrotation
                        JOINT LeftHandPinky2
                        {
                          OFFSET 2.75653 0 0
                          CHANNELS 3 Zrotation Xrotation Yrotation
                          JOINT LeftHandPinky3
                          {
                            OFFSET 1.74189 0 0
                            CHANNELS 3 Zrotation Xrotation Yrotation
                            End Site
                            {
                              OFFSET 1.645 0 0
                            }
                          }
                        }
                      }
                    }
                  }
                }
              }
            }
          }
        }
      }
    }
  }
}
MOTION
Frames: 2
Frame Time: 0.00833333
3.150000000000000000e+03 0.000000000000000000e+00 0.000000000000000000e+00 0.000000000000000000e+00 0.000000000000000000e+00 0.000000000000000000e+00 2.257740000000000435e+01 1.533329999999999771e+01 -6.200170000000001380e+01 -2.110159999999999769e+01 -5.287619999999999720e+01 -2.539289999999999736e+01 -5.855239999999994893e-01 2.621669999999999945e+01 -1.824340000000000117e+01 8.814550000000002328e+00 5.807310000000001082e+00 2.470409999999999684e+01 1.136289999999999978e+01 -4.684409999999999741e+01 -8.126080000000001746e+00 3.401659999999999684e+00 3.119570000000000576e+01 1.613779999999998438e+00 -1.363250000000000028e+01 -1.097739999999999938e+01 -1.545320000000000071e+01 -4.204749999999999766e+00 1.628950000000000031e+01 1.036090000000000089e+01 -7.748140000000000027e-01 4.034790000000000987e+00 2.508980000000000210e+00 -1.322170000000000289e+00 6.413510000000000488e+00 4.176289999999999836e+00 -3.294939999999999536e-01 -3.367540000000000533e-01 -3.697449999999999903e-01 -3.298240000000003391e-01 -3.401420000000001664e-01 -3.679999999999949978e-01 -6.358459999999997336e+00 -6.401640000000000441e+00 -6.520499999999998408e+00 -7.136770000000005609e-01 -1.500379999999999825e+01 2.248699999999999477e+01 6.985250000000000625e+01 2.440829999999998279e+00 5.376430000000000575e+01 1.017419999999999902e+01 -4.692199999999999704e+01 -5.841520000000002710e+00 1.735549999999999926e+01 -2.224510000000000076e+01 -1.883070000000000732e+01 2.818400000000000105e+01 1.072940000000000005e+01 1.915919999999999845e+01 -5.332690000000001067e-15 -1.192709999999999929e-14 -1.000000000000000000e+01 -4.631660000000000797e-15 -7.951389999999999226e-15 -1.000000000000000000e+01 0.000000000000000000e+00 -3.180550000000000771e-15 -4.770829999999998678e-15 1.998179999999999978e+01 8.718970000000000331e-01 2.396399999999999864e+00 2.400000000000000000e+01 -1.510760000000000118e-14 1.272219999999999362e-14 2.000000000000000000e+01 -1.192710000000001192e-15 -2.226390000000000270e-14 0.000000000000000000e+00 -3.180550000000000771e-15 -4.770829999999998678e-15 2.000000000000000000e+01 -3.180550000000000771e-15 9.541660000000000512e-15 2.400000000000000000e+01 -3.180549999999999193e-15 3.180550000000007082e-15 2.000000000000000000e+01 -4.770829999999999467e-15 -6.361109999999999741e-15 0.000000000000000000e+00 -3.180550000000000771e-15 -4.770829999999998678e-15 1.997479999999999833e+01 -1.025649999999999951e+00 -2.819380000000000219e+00 2.400000000000000000e+01 -4.770830000000001045e-15 1.590279999999999801e-14 2.000000000000000000e+01 -5.503849999999999691e-15 3.180549999999999193e-15 0.000000000000000000e+00 -3.180550000000000771e-15 -4.770829999999998678e-15 1.978150000000000119e+01 -3.009479999999999933e+00 -8.305149999999999366e+00 2.400000000000000000e+01 0.000000000000000000e+00 0.000000000000000000e+00 2.000000000000000000e+01 9.939230000000012216e-16 -9.541660000000002090e-15 1.546230000000000082e+01 -1.413419999999999987e+01 -3.031909999999999883e+01 -3.669409999999999172e+01 3.314330000000001064e+01 -7.038520000000001176e+01 3.299060000000000059e+01 -8.392100000000002069e+01 3.294429999999999836e+01 -2.627019999999999911e+01 -2.080850000000000222e+01 6.323289999999998301e+00 -2.818400000000000105e+01 1.072940000000000005e+01 -1.915919999999999845e+01 1.827580000000000403e-15 7.951389999999999226e-15 1.000000000000000000e+01 2.668799999999999506e-15 3.180550000000000771e-15 1.000000000000000000e+01 1.590280000000001063e-15 -3.180549999999999193e-15 -6.361109999999999741e-15 -1.998179999999999978e+01 8.718970000000000331e-01 -2.396399999999999864e+00 -2.400000000000000000e+01 -8.348960000000001464e-15 9.541660000000000512e-15 -2.000000000000000000e+01 1.590280000000000274e-15 -1.272219999999999993e-14 1.590280000000001063e-15 -3.180549999999999193e-15 -6.361109999999999741e-15 -2.000000000000000000e+01 -3.180550000000000771e-15 0.000000000000000000e+00 -2.400000000000000000e+01 -2.782989999999999099e-15 1.908330000000000147e-14 -2.000000000000000000e+01 -3.180550000000001560e-15 -2.226389999999999955e-14 1.590280000000001063e-15 -3.180549999999999193e-15 -6.361109999999999741e-15 -1.997479999999999833e+01 -1.025649999999999951e+00 2.819380000000000219e+00 -2.400000000000000000e+01 -1.073439999999999867e-14 -9.541660000000000512e-15 -2.000000000000000000e+01 -4.770830000000001045e-15 9.541660000000000512e-15 1.590280000000001063e-15 -3.180549999999999193e-15 -6.361109999999999741e-15 -1.978150000000000119e+01 -3.009479999999999933e+00 8.305149999999999366e+00 -2.400000000000000000e+01 -9.541660000000000512e-15 1.590279999999999485e-14 -2.000000000000000000e+01 -1.590280000000000116e-14 2.226390000000000270e-14
3.150000000000000000e+03 0.000000000000000000e+00 0.000000000000000000e+00 0.000000000000000000e+00 0.000000000000000000e+00 0.000000000000000000e+00 2.257989999999999498e+01 1.533409999999999940e+01 -6.201580000000001291e+01 -2.107590000000000074e+01 -5.288170000000000215e+01 -2.536849999999999739e+01 -5.936760000000003146e-01 2.621910000000000096e+01 -1.822500000000000142e+01 8.822969999999997981e+00 5.807649999999998869e+00 2.469669999999999987e+01 1.136289999999999978e+01 -4.684409999999999030e+01 -8.126079999999999970e+00 3.410499999999998977e+00 3.120420000000000016e+01 1.613919999999993138e+00 -1.363250000000000206e+01 -1.097739999999999583e+01 -1.545320000000000071e+01 -4.203769999999999563e+00 1.628440000000000509e+01 1.036059999999999803e+01 -7.748140000000001137e-01 4.034790000000000099e+00 2.508980000000000210e+00 -1.322169999999999845e+00 6.413510000000000488e+00 4.176289999999999836e+00 -3.294940000000000646e-01 -3.367539999999999978e-01 -3.697449999999991022e-01 -3.298239999999994509e-01 -3.401420000000001664e-01 -3.680000000000021032e-01 -6.357339999999997104e+00 -6.391939999999999955e+00 -6.520369999999999777e+00 -7.136289999999991807e-01 -1.499490000000000123e+01 2.249889999999999546e+01 6.984149999999999636e+01 2.442489999999999384e+00 5.377099999999999369e+01 1.012720000000000198e+01 -4.697220000000000084e+01 -5.914479999999997517e+00 1.738689999999999714e+01 -2.219489999999999696e+01 -1.880500000000000682e+01 2.818400000000000105e+01 1.072940000000000005e+01 1.915919999999999845e+01 1.402039999999994675e-16 7.951389999999999226e-16 -1.000000000000000000e+01 3.510029999999999964e-15 1.590280000000001063e-15 -1.000000000000000000e+01 -3.180549999999999982e-15 -3.180549999999999193e-15 -7.951389999999999226e-15 1.998179999999999978e+01 8.718970000000000331e-01 2.396399999999999864e+00 2.400000000000000000e+01 1.192710000000000245e-14 1.908329999999999516e-14 2.000000000000000000e+01 1.133069999999999931e-14 4.134720000000000733e-14 -3.180549999999999982e-15 -3.180549999999999193e-15 -7.951389999999999226e-15 2.000000000000000000e+01 -3.180549999999998404e-15 1.272219999999999993e-14 2.400000000000000000e+01 9.541659999999998934e-15 3.180550000000000140e-14 2.000000000000000000e+01 1.252339999999999993e-14 6.361110000000001319e-15 -3.180549999999999982e-15 -3.180549999999999193e-15 -7.951389999999999226e-15 1.997479999999999833e+01 -1.025649999999999951e+00 -2.819380000000000219e+00 2.400000000000000000e+01 0.000000000000000000e+00 2.862499999999999162e-14 2.000000000000000000e+01 4.857800000000000957e-15 2.226390000000000270e-14 -3.180549999999999982e-15 -3.180549999999999193e-15 -7.951389999999999226e-15 1.978150000000000119e+01 -3.009479999999999933e+00 -8.305149999999999366e+00 2.400000000000000000e+01 -4.770830000000000256e-15 1.272219999999999677e-14 2.000000000000000000e+01 1.053560000000000025e-14 9.541660000000000512e-15 1.545490000000000030e+01 -1.411989999999999768e+01 -3.031700000000000728e+01 -3.667919999999999447e+01 3.314600000000000790e+01 -7.039020000000000721e+01 3.311940000000002726e+01 -8.391970000000000596e+01 3.307130000000000791e+01 -2.628730000000000189e+01 -2.079149999999999920e+01 6.322570000000000690e+00 -2.818400000000000105e+01 1.072940000000000005e+01 -1.915919999999999845e+01 -3.510029999999996808e-15 1.590279999999999485e-15 1.000000000000000000e+01 -5.124839999999999080e-15 1.590279999999999485e-15 1.000000000000000000e+01 -6.361109999999998952e-15 0.000000000000000000e+00 -3.180550000000000376e-15 -1.998179999999999978e+01 8.718970000000000331e-01 -2.396399999999999864e+00 -2.400000000000000000e+01 -6.559890000000000183e-15 -1.908330000000000147e-14 -2.000000000000000000e+01 6.361109999999999741e-15 -9.541660000000000512e-15 -6.361109999999998952e-15 0.000000000000000000e+00 -3.180550000000000376e-15 -2.000000000000000000e+01 0.000000000000000000e+00 -3.180549999999999982e-15 -2.400000000000000000e+01 3.975689999999999725e-15 1.272219999999999993e-14 -2.000000000000000000e+01 -3.180549999999999193e-15 -9.541660000000000512e-15 -6.361109999999998952e-15 0.000000000000000000e+00 -3.180550000000000376e-15 -1.997479999999999833e+01 -1.025649999999999951e+00 2.819380000000000219e+00 -2.400000000000000000e+01 7.951389999999999226e-16 -9.541660000000003667e-15 -2.000000000000000000e+01 -3.180549999999999193e-15 -6.361110000000001319e-15 -6.361109999999998952e-15 0.000000000000000000e+00 -3.180550000000000376e-15 -1.978150000000000119e+01 -3.009479999999999933e+00 8.305149999999999366e+00 -2.400000000000000000e+01 -7.951389999999999226e-15 6.361109999999999741e-15 -2.000000000000000000e+01 -1.272219999999999993e-14 3.180550000000000771e-15
